<svg width="92" height="91" viewBox="0 0 92 91" fill="none" xmlns="http://www.w3.org/2000/svg">
<path d="M31.9199 47.9634C31.3882 47.9639 30.8617 47.8595 30.3703 47.6563C29.879 47.4532 29.4326 47.1551 29.0565 46.7792C28.6805 46.4034 28.3823 45.957 28.1788 45.4658C27.9754 44.9746 27.8709 44.4481 27.8711 43.9164V40.6425C27.8711 38.1377 28.7449 35.7114 30.3417 33.7816C31.9386 31.8519 34.1586 30.5396 36.6192 30.0709L42.0259 29.04H49.9635L55.3773 30.0709C57.8385 30.5389 60.0593 31.8508 61.6569 33.7807C63.2545 35.7105 64.1287 38.1372 64.1289 40.6425V43.9164C64.1291 44.4478 64.0247 44.974 63.8215 45.465C63.6183 45.956 63.3204 46.4021 62.9447 46.778C62.5691 47.1538 62.123 47.4519 61.6321 47.6553C61.1412 47.8587 60.615 47.9634 60.0837 47.9634H31.9199Z" fill="#FF6666"/>
<path d="M55.3777 30.0709L49.9639 29.04H44.6318L50.0403 30.0709C52.5025 30.5378 54.7245 31.8493 56.3232 33.7792C57.9219 35.7091 58.7968 38.1365 58.7973 40.6425V43.9164C58.7975 44.4478 58.693 44.974 58.4898 45.465C58.2867 45.956 57.9887 46.4021 57.6131 46.778C57.2374 47.1538 56.7914 47.4519 56.3005 47.6553C55.8096 47.8587 55.2834 47.9634 54.752 47.9634H60.0841C60.6154 47.9634 61.1416 47.8587 61.6325 47.6553C62.1234 47.4519 62.5694 47.1538 62.9451 46.778C63.3208 46.4021 63.6187 45.956 63.8219 45.465C64.0251 44.974 64.1295 44.4478 64.1293 43.9164V40.6425C64.1291 38.1372 63.2549 35.7105 61.6573 33.7807C60.0597 31.8508 57.8389 30.5389 55.3777 30.0709Z" fill="#FF4E4E"/>
<path d="M42.0293 27.3015V30.5931C42.0293 31.6462 42.4476 32.6561 43.1923 33.4008C43.9369 34.1454 44.9468 34.5637 45.9999 34.5637C47.0529 34.5637 48.0629 34.1454 48.8075 33.4008C49.5521 32.6561 49.9705 31.6462 49.9705 30.5931V27.2891" fill="#FFCD85"/>
<path d="M46.3018 27.2944V30.5931C46.302 31.3189 46.1033 32.0308 45.7273 32.6516C45.3512 33.2723 44.8123 33.7782 44.1689 34.1141C44.774 34.4298 45.4503 34.5842 46.1325 34.5622C46.8147 34.5403 47.4796 34.3428 48.0632 33.9888C48.6468 33.6349 49.1292 33.1364 49.4639 32.5416C49.7985 31.9467 49.9741 31.2757 49.9737 30.5931V27.2891L46.3018 27.2944Z" fill="#FFC166"/>
<path d="M55.495 12.1926V4.77572C55.495 3.11213 54.146 1.33301 52.4824 1.33301H36.5059V6.16738C36.5082 6.96565 36.8264 7.73056 37.3908 8.29502C37.9553 8.85948 38.7202 9.17764 39.5185 9.17998" fill="#595F74"/>
<path d="M52.4824 1.33301H47.1504C48.814 1.33301 50.163 3.11035 50.163 4.77572V11.1866L55.495 12.1926V4.77572C55.495 3.11213 54.146 1.33301 52.4824 1.33301Z" fill="#4A4F60"/>
<path d="M46.0004 28.1688C43.4823 28.1688 41.0673 27.1685 39.2868 25.3879C37.5062 23.6074 36.5059 21.1924 36.5059 18.6743V10.662C36.5059 10.4673 36.5442 10.2746 36.6187 10.0947C36.6932 9.9149 36.8024 9.75149 36.94 9.61384C37.0777 9.4762 37.2411 9.36701 37.4209 9.29252C37.6008 9.21803 37.7935 9.17969 37.9882 9.17969H54.0127C54.4058 9.17969 54.7829 9.33586 55.0608 9.61384C55.3388 9.89183 55.495 10.2689 55.495 10.662V18.6743C55.495 21.1924 54.4947 23.6074 52.7141 25.3879C50.9335 27.1685 48.5185 28.1688 46.0004 28.1688Z" fill="#FFCD85"/>
<path d="M54.0123 9.17969H48.6802C48.8751 9.17945 49.0681 9.21769 49.2482 9.29221C49.4282 9.36674 49.5918 9.47607 49.7295 9.61395C49.8673 9.75183 49.9764 9.91554 50.0507 10.0957C50.125 10.2758 50.163 10.4689 50.1625 10.6638V18.676C50.1618 20.7286 49.4961 22.7258 48.265 24.3682C47.034 26.0107 45.3039 27.2101 43.334 27.7867C44.2 28.0401 45.0977 28.1688 46 28.1688C48.5181 28.1688 50.9331 27.1685 52.7137 25.3879C54.4943 23.6074 55.4946 21.1924 55.4946 18.6743V10.6638C55.495 10.4689 55.457 10.2758 55.3827 10.0957C55.3084 9.91554 55.1993 9.75183 55.0616 9.61395C54.9239 9.47607 54.7603 9.36674 54.5802 9.29221C54.4001 9.21769 54.2071 9.17945 54.0123 9.17969Z" fill="#FFC166"/>
<path d="M69.1805 45.9284C72.5896 45.9284 75.3532 43.1648 75.3532 39.7557C75.3532 36.3466 72.5896 33.583 69.1805 33.583C65.7714 33.583 63.0078 36.3466 63.0078 39.7557C63.0078 43.1648 65.7714 45.9284 69.1805 45.9284Z" fill="#595F74"/>
<path d="M46.0002 80.7607C46.8164 79.1154 48.0026 77.6815 49.4658 76.5714C50.929 75.4613 52.6294 74.7051 54.4337 74.3623L60.4092 73.2266H69.1804L75.1629 74.3676C77.8835 74.8853 80.3383 76.3359 82.104 78.4696C83.8697 80.6032 84.8356 83.286 84.8352 86.0554V91H44.4326L46.0002 80.7607Z" fill="#66C1FF"/>
<path d="M75.1622 74.3605L69.1797 73.2266H63.8477L69.8266 74.3658C72.5473 74.8835 75.0021 76.3342 76.7677 78.4678C78.5334 80.6014 79.4993 83.2842 79.4989 86.0537V91H84.831V86.0483C84.8315 83.2794 83.8661 80.597 82.1012 78.4634C80.3362 76.3299 77.8822 74.8789 75.1622 74.3605Z" fill="#4EB7FF"/>
<path d="M60.4092 71.2986V74.9386C60.4089 75.5149 60.5223 76.0857 60.7427 76.6182C60.9632 77.1507 61.2864 77.6345 61.694 78.0421C62.1015 78.4496 62.5853 78.7728 63.1179 78.9933C63.6504 79.2137 64.2211 79.3271 64.7974 79.3268C65.3739 79.3271 65.9447 79.2137 66.4773 78.9933C67.0099 78.7729 67.4939 78.4497 67.9016 78.0422C68.3092 77.6347 68.6326 77.1508 68.8533 76.6183C69.0739 76.0858 69.1875 75.515 69.1875 74.9386V71.2861" fill="#FFCD85"/>
<path d="M64.7968 71.2932V74.9386C64.7966 75.7085 64.5939 76.4648 64.2089 77.1315C63.8239 77.7982 63.2703 78.3518 62.6035 78.7368C63.2699 79.1229 64.0266 79.3259 64.7968 79.3251C65.3732 79.3253 65.944 79.212 66.4766 78.9915C67.0092 78.7711 67.4932 78.4479 67.9009 78.0404C68.3086 77.6329 68.6319 77.149 68.8526 76.6165C69.0732 76.084 69.1868 75.5132 69.1868 74.9368V71.2861L64.7968 71.2932Z" fill="#FFC166"/>
<path d="M75.294 54.596V53.087C75.2951 51.7083 75.0244 50.3429 74.4973 49.0689C73.9701 47.7949 73.197 46.6374 72.222 45.6625C71.247 44.6877 70.0893 43.9147 68.8153 43.3878C67.5412 42.8609 66.1757 42.5904 64.797 42.5918C63.4184 42.5906 62.0531 42.8613 60.7792 43.3883C59.5054 43.9153 58.3479 44.6884 57.3731 45.6632C56.3983 46.638 55.6253 47.7954 55.0983 49.0693C54.5713 50.3432 54.3006 51.7084 54.3018 53.087V55.9308L75.294 54.596Z" fill="#676E87"/>
<path d="M64.797 42.5918C63.8974 42.5914 63.0014 42.7061 62.131 42.9331C64.3744 43.5231 66.3593 44.8393 67.776 46.6762C69.1926 48.5131 69.9613 50.7673 69.9619 53.087V54.596L54.3018 55.5948V55.9343L75.294 54.596V53.087C75.2951 51.7083 75.0244 50.3429 74.4973 49.0689C73.9701 47.7949 73.197 46.6374 72.222 45.6625C71.247 44.6877 70.0893 43.9147 68.8152 43.3878C67.5412 42.8609 66.1757 42.5904 64.797 42.5918Z" fill="#595F74"/>
<path d="M64.797 72.2581C67.5806 72.2581 70.2503 71.1524 72.2188 69.1843C74.1874 67.2161 75.2935 64.5466 75.294 61.7629V53.9337C74.9385 54.1257 72.2298 55.5333 69.3576 54.2607C68.1179 53.6994 67.0824 52.7681 66.393 51.5947C65.0628 52.9549 63.3989 53.9423 61.5675 54.458C59.1549 55.1063 56.5939 54.9184 54.3018 53.9248V61.7629C54.3018 64.5464 55.4075 67.2159 57.3757 69.1841C59.344 71.1524 62.0135 72.2581 64.797 72.2581Z" fill="#FFCD85"/>
<path d="M69.9618 54.4881V61.7628C69.9614 64.0824 69.1928 66.3365 67.7761 68.1731C66.3594 70.0098 64.3743 71.3256 62.1309 71.915C63.0011 72.1434 63.8972 72.2587 64.7969 72.258C67.5805 72.258 70.2502 71.1523 72.2187 69.1841C74.1873 67.2159 75.2934 64.5465 75.2939 61.7628V53.9336C74.9704 54.1113 72.5994 55.3341 69.9618 54.4881Z" fill="#FFC166"/>
<path d="M7.16504 91V86.0483C7.16465 83.2789 8.13055 80.596 9.89623 78.4624C11.6619 76.3288 14.1167 74.8782 16.8373 74.3605L22.8128 73.2266H31.584L37.5683 74.3676C40.2884 74.8843 42.7431 76.3336 44.5093 78.4658C46.2756 80.598 47.2427 83.2796 47.2441 86.0483V91" fill="#63EA86"/>
<path d="M37.5683 74.3605L31.584 73.2266H26.252L32.2309 74.3658C34.9523 74.8815 37.4085 76.3306 39.1758 78.4633C40.9432 80.596 41.9109 83.2785 41.9121 86.0483V91H47.2442V86.0483C47.2444 83.2784 46.278 80.5951 44.5116 78.4615C42.7452 76.3278 40.2896 74.8774 37.5683 74.3605Z" fill="#3CE568"/>
<path d="M22.8125 71.2986V74.9386C22.8125 75.515 22.9261 76.0858 23.1467 76.6183C23.3673 77.1508 23.6907 77.6347 24.0984 78.0422C24.5061 78.4497 24.9901 78.7729 25.5227 78.9933C26.0553 79.2137 26.6261 79.3271 27.2025 79.3268C27.7789 79.3271 28.3496 79.2137 28.8821 78.9933C29.4146 78.7728 29.8985 78.4496 30.306 78.0421C30.7136 77.6345 31.0368 77.1507 31.2572 76.6182C31.4777 76.0857 31.591 75.5149 31.5908 74.9386V71.2861" fill="#FFCD85"/>
<path d="M27.8711 71.2915V74.9386C27.8715 75.773 27.6339 76.5903 27.1862 77.2945C26.7386 77.9987 26.0994 78.5606 25.3438 78.9145C25.9256 79.187 26.5604 79.3278 27.2029 79.3268C27.7792 79.3271 28.3499 79.2137 28.8824 78.9933C29.415 78.7728 29.8988 78.4496 30.3063 78.0421C30.7139 77.6345 31.0371 77.1507 31.2576 76.6182C31.478 76.0857 31.5913 75.5149 31.5911 74.9386V71.2861L27.8711 71.2915Z" fill="#FFC166"/>
<path d="M37.6983 54.596V46.3971C37.6983 44.5575 36.2071 42.5918 34.3675 42.5918H16.7061V47.9363C16.7061 48.8196 17.057 49.6668 17.6816 50.2915C18.3062 50.9161 19.1534 51.267 20.0368 51.267" fill="#676E87"/>
<path d="M34.3672 42.5918H29.0352C30.8747 42.5918 32.3659 44.5575 32.3659 46.3971V53.59L37.6979 54.596V46.3971C37.6979 44.5575 36.2067 42.5918 34.3672 42.5918Z" fill="#595F74"/>
<path d="M27.2013 72.2578C24.4178 72.2578 21.7483 71.1521 19.78 69.1839C17.8118 67.2156 16.7061 64.5461 16.7061 61.7626V52.9043C16.7061 52.4697 16.8787 52.0529 17.186 51.7456C17.4933 51.4383 17.9102 51.2656 18.3448 51.2656H36.0596C36.4942 51.2656 36.911 51.4383 37.2183 51.7456C37.5256 52.0529 37.6983 52.4697 37.6983 52.9043V61.7626C37.6983 64.5461 36.5925 67.2156 34.6243 69.1839C32.6561 71.1521 29.9866 72.2578 27.203 72.2578H27.2013Z" fill="#FFCD85"/>
<path d="M36.0595 51.2656H30.7275C31.1621 51.2656 31.5789 51.4383 31.8862 51.7456C32.1936 52.0529 32.3662 52.4697 32.3662 52.9043V61.7626C32.3664 64.0808 31.5993 66.3338 30.1847 68.1703C28.77 70.0068 26.7873 71.3234 24.5459 71.9148C25.4161 72.1433 26.3122 72.2586 27.2119 72.2578C29.9939 72.2555 32.6611 71.1487 34.6274 69.1807C36.5937 67.2127 37.6982 64.5446 37.6982 61.7626V52.9043C37.6982 52.4697 37.5256 52.0529 37.2183 51.7456C36.911 51.4383 36.4941 51.2656 36.0595 51.2656Z" fill="#FFC166"/>
<path d="M75.4133 73.0488L70.5273 72.1175C72.3763 71.0948 73.9177 69.5959 74.9916 67.7763C76.0655 65.9566 76.6327 63.8827 76.6343 61.7698V53.0875C76.6291 50.3435 75.6732 47.6861 73.9292 45.5675C74.7117 44.9185 75.3542 44.1172 75.8175 43.2122C76.2808 42.3072 76.5553 41.3175 76.6242 40.3032C76.6932 39.2889 76.5553 38.2711 76.2188 37.3118C75.8823 36.3524 75.3542 35.4715 74.6667 34.7225C73.9793 33.9735 73.1467 33.3721 72.2196 32.9548C71.2925 32.5375 70.2903 32.313 69.2738 32.2951C68.2573 32.2771 67.2477 32.466 66.3064 32.8502C65.3652 33.2344 64.5119 33.806 63.7983 34.5302C62.9247 33.042 61.7435 31.7575 60.3335 30.7626C58.9236 29.7677 57.3174 29.0852 55.6225 28.761L51.524 27.9807C53.1382 27.0219 54.4755 25.66 55.4047 24.0285C56.3338 22.3971 56.8229 20.5521 56.824 18.6746V4.77572C56.8068 3.60379 56.3855 2.47374 55.6314 1.5765C54.7996 0.574082 53.6426 0 52.482 0H36.5054C36.1519 0 35.8128 0.140441 35.5629 0.390429C35.3129 0.640416 35.1724 0.979472 35.1724 1.33301V6.16738C35.1712 7.07228 35.4548 7.95462 35.9829 8.68943C35.4627 9.21488 35.1714 9.92468 35.1724 10.6641V18.6763C35.1735 20.5538 35.6626 22.3988 36.5918 24.0303C37.5209 25.6618 38.8582 27.0237 40.4725 27.9825L36.3739 28.7628C33.6093 29.2913 31.1153 30.7667 29.3208 32.9352C27.5264 35.1036 26.5436 37.8296 26.5416 40.6443V41.261H16.7058C16.3523 41.261 16.0132 41.4015 15.7632 41.6515C15.5133 41.9015 15.3728 42.2405 15.3728 42.594V47.9385C15.3736 48.951 15.7056 49.9354 16.3184 50.7414C16.0214 51.0181 15.7845 51.3529 15.6225 51.725C15.4604 52.0971 15.3767 52.4985 15.3764 52.9044V61.7627C15.3769 63.8745 15.9425 65.9477 17.0145 67.7673C18.0864 69.5868 19.6257 71.0863 21.4727 72.1104L16.5867 73.0488C13.5625 73.6277 10.8345 75.2422 8.87175 77.6146C6.90899 79.9871 5.83415 82.9692 5.83203 86.0483V89.667C5.83203 90.0205 5.97247 90.3596 6.22246 90.6096C6.47245 90.8596 6.8115 91 7.16504 91C7.51857 91 7.85763 90.8596 8.10762 90.6096C8.35761 90.3596 8.49805 90.0205 8.49805 89.667V86.0483C8.50005 83.5897 9.3585 81.2086 10.9258 79.3143C12.4931 77.42 14.6714 76.1309 17.0862 75.6686L21.4727 74.8262V74.9328C21.4991 76.433 22.1136 77.8627 23.1838 78.9143C24.2541 79.9658 25.6944 80.555 27.1948 80.555C28.6952 80.555 30.1356 79.9658 31.2058 78.9143C32.276 77.8627 32.8905 76.433 32.917 74.9328V74.8262L37.3106 75.6633C39.7253 76.1256 41.9036 77.4147 43.4709 79.309C45.0382 81.2033 45.8967 83.5844 45.8987 86.043V89.667C45.8987 89.842 45.9332 90.0154 46.0002 90.1771C46.0672 90.3388 46.1653 90.4858 46.2891 90.6096C46.4129 90.7334 46.5599 90.8315 46.7216 90.8985C46.8833 90.9655 47.0566 91 47.2317 91C47.4067 91 47.5801 90.9655 47.7418 90.8985C47.9035 90.8315 48.0505 90.7334 48.1743 90.6096C48.2981 90.4858 48.3962 90.3388 48.4632 90.1771C48.5302 90.0154 48.5647 89.842 48.5647 89.667V86.0483C48.5656 84.2447 48.196 82.4601 47.4788 80.8052C48.2397 79.4829 49.2762 78.3399 50.5179 77.4536C51.7596 76.5674 53.1775 75.9586 54.6752 75.6686L59.0759 74.8262V74.9328C59.1024 76.433 59.7169 77.8627 60.7871 78.9143C61.8573 79.9658 63.2977 80.555 64.7981 80.555C66.2985 80.555 67.7388 79.9658 68.8091 78.9143C69.8793 77.8627 70.4938 76.433 70.5202 74.9328V74.8262L74.9138 75.6633C77.3295 76.1258 79.5085 77.4157 81.0759 79.311C82.6433 81.2064 83.5012 83.5888 83.502 86.0483V89.667C83.502 90.0205 83.6424 90.3596 83.8924 90.6096C84.1424 90.8596 84.4814 91 84.835 91C85.1885 91 85.5276 90.8596 85.7775 90.6096C86.0275 90.3596 86.168 90.0205 86.168 89.667V86.0483C86.1659 82.9692 85.091 79.9871 83.1282 77.6146C81.1655 75.2422 78.4375 73.6277 75.4133 73.0488ZM69.1801 34.9159C70.1373 34.9159 71.073 35.1998 71.8689 35.7316C72.6648 36.2633 73.2851 37.0192 73.6514 37.9035C74.0177 38.7879 74.1136 39.761 73.9268 40.6998C73.7401 41.6386 73.2792 42.501 72.6023 43.1778C71.9255 43.8547 71.0631 44.3156 70.1243 44.5023C69.1855 44.6891 68.2124 44.5932 67.328 44.2269C66.4437 43.8606 65.6878 43.2403 65.156 42.4444C64.6243 41.6485 64.3404 40.7128 64.3404 39.7556C64.3423 38.4726 64.8528 37.2427 65.76 36.3355C66.6672 35.4283 67.8971 34.9178 69.1801 34.9159ZM69.1801 47.2613C69.9798 47.2612 70.7743 47.1328 71.5333 46.881C73.086 48.5689 73.9513 50.7763 73.9594 53.0697C73.0707 53.4003 71.5031 53.7486 69.8964 53.0413C68.9118 52.5916 68.0886 51.851 67.5378 50.9191C67.4334 50.7438 67.2901 50.5948 67.119 50.4837C66.9479 50.3725 66.7535 50.3021 66.5509 50.2779C66.3483 50.2536 66.1428 50.2763 65.9503 50.344C65.7578 50.4117 65.5834 50.5228 65.4406 50.6685C64.198 51.9503 62.616 52.8517 60.8798 53.2671C59.1436 53.6826 57.325 53.595 55.6368 53.0146C55.6463 50.8964 56.3925 48.8476 57.7474 47.2193C59.1022 45.5911 60.9813 44.485 63.0625 44.0906C63.7548 45.0693 64.6715 45.868 65.7358 46.4197C66.8002 46.9713 67.9813 47.2599 69.1801 47.2613ZM37.8384 2.66602H52.482C53.2978 2.66602 54.1616 3.7502 54.1616 4.77572V7.85408H39.518C39.0727 7.85361 38.6458 7.6765 38.3309 7.36162C38.016 7.04674 37.8389 6.6198 37.8384 6.17449V2.66602ZM37.8384 18.6746V10.6641C37.8389 10.6246 37.8548 10.5869 37.8827 10.559C37.9106 10.5311 37.9483 10.5152 37.9877 10.5148H54.0123C54.0517 10.5152 54.0894 10.5311 54.1173 10.559C54.1452 10.5869 54.1611 10.6246 54.1616 10.6641V18.6763C54.1596 20.2159 53.7231 21.7236 52.9021 23.0259C52.0811 24.3283 50.9091 25.3724 49.5209 26.0381C49.4506 26.0623 49.3827 26.0933 49.3183 26.1305C48.0759 26.6844 46.7147 26.9188 45.3586 26.8125C44.0025 26.7061 42.6945 26.2624 41.5537 25.5216C40.4128 24.7808 39.4753 23.7665 38.8264 22.5709C38.1775 21.3754 37.8379 20.0366 37.8384 18.6763V18.6746ZM48.6376 29.1751V30.597C48.6376 31.2965 48.3597 31.9674 47.8651 32.462C47.3704 32.9567 46.6995 33.2346 46 33.2346C45.3005 33.2346 44.6296 32.9567 44.1349 32.462C43.6403 31.9674 43.3624 31.2965 43.3624 30.597V29.1751C45.0938 29.6112 46.9062 29.6112 48.6376 29.1751ZM18.0388 43.9271H34.3691C35.3573 43.9271 36.365 45.1712 36.365 46.3993V49.954C36.2655 49.954 36.1624 49.9398 36.0593 49.9398H20.0366C19.5069 49.9393 18.999 49.7287 18.6245 49.3542C18.2499 48.9796 18.0393 48.4718 18.0388 47.9421V43.9271ZM30.2581 74.9399C30.2388 75.7377 29.9084 76.4963 29.3374 77.0538C28.7663 77.6112 27.9999 77.9232 27.2019 77.9232C26.4039 77.9232 25.6375 77.6112 25.0665 77.0538C24.4955 76.4963 24.165 75.7377 24.1458 74.9399V73.191C26.1464 73.7254 28.2522 73.7254 30.2527 73.191C30.2492 73.2449 30.2492 73.2989 30.2527 73.3528L30.2581 74.9399ZM31.1467 70.0327C31.0726 70.0574 31.0011 70.0895 30.9335 70.1287C29.5386 70.7523 28.0099 71.0171 26.4865 70.8987C24.9631 70.7804 23.4936 70.2828 22.2118 69.4511C20.93 68.6195 19.8767 67.4803 19.1478 66.1375C18.419 64.7946 18.0377 63.2906 18.0388 61.7627V52.9044C18.0416 52.8252 18.075 52.7502 18.1321 52.6951C18.1891 52.6401 18.2653 52.6093 18.3445 52.6094H36.0593C36.1401 52.6094 36.2176 52.6413 36.2749 52.6983C36.3321 52.7552 36.3645 52.8325 36.365 52.9133V61.7627C36.3627 63.4919 35.8718 65.1852 34.9488 66.6474C34.0259 68.1097 32.7085 69.2813 31.1485 70.0273L31.1467 70.0327ZM59.0741 72.1193L54.1758 73.0488C50.8993 73.6857 47.9815 75.5296 46 78.2156C44.0255 75.5221 41.1045 73.6761 37.8242 73.0488L32.9312 72.1157C34.7801 71.0931 36.3215 69.5941 37.3954 67.7745C38.4693 65.9549 39.0365 63.8809 39.0381 61.768V46.3976C39.0189 45.1347 38.5651 43.917 37.7531 42.9495C36.8556 41.8831 35.6203 41.2593 34.3762 41.2593H29.2219V40.6425C29.2236 38.4484 29.9896 36.3234 31.3883 34.6328C32.7869 32.9423 34.7308 31.7917 36.8858 31.379L40.7124 30.6521C40.7124 32.0582 41.271 33.4067 42.2653 34.401C43.2596 35.3953 44.6081 35.9539 46.0142 35.9539C47.4203 35.9539 48.7689 35.3953 49.7632 34.401C50.7575 33.4067 51.316 32.0582 51.316 30.6521L55.1409 31.3808C56.7017 31.6797 58.1619 32.3676 59.3862 33.3807C60.6106 34.3938 61.5596 35.6994 62.1454 37.1767C61.6244 38.6014 61.5463 40.1502 61.9214 41.6201C59.3627 42.2571 57.0915 43.7338 55.4711 45.814C53.8507 47.8942 52.9747 50.4578 52.9832 53.0946V53.2723C52.9838 53.3839 52.9981 53.4949 53.0258 53.6029C52.9971 53.712 52.9828 53.8243 52.9832 53.937V61.7627C52.9848 63.8756 53.552 65.9495 54.6259 67.7691C55.6998 69.5888 57.2412 71.0877 59.0901 72.1104L59.0741 72.1193ZM67.8613 74.9381C67.8421 75.7359 67.5117 76.4946 66.9406 77.052C66.3696 77.6094 65.6032 77.9215 64.8052 77.9215C64.0072 77.9215 63.2408 77.6094 62.6698 77.052C62.0987 76.4946 61.7683 75.7359 61.749 74.9381V73.1892C63.7496 73.7236 65.8554 73.7236 67.856 73.1892C67.8524 73.2431 67.8524 73.2971 67.856 73.351L67.8613 74.9381ZM68.75 70.0273C68.6754 70.0523 68.6034 70.0845 68.5349 70.1233C67.1402 70.747 65.6116 71.0117 64.0884 70.8934C62.5652 70.7752 61.0958 70.2777 59.8141 69.4463C58.5323 68.6149 57.4789 67.476 56.75 66.1333C56.021 64.7906 55.6395 63.2869 55.6403 61.7591V55.7908C57.4517 56.2696 59.3499 56.318 61.1834 55.9322C63.0168 55.5465 64.7346 54.7372 66.1995 53.5691C66.9284 54.387 67.8242 55.0391 68.8264 55.4816C70.4503 56.1763 72.2605 56.3052 73.9665 55.8477V61.7627C73.964 63.4918 73.473 65.185 72.55 66.6473C71.6271 68.1095 70.3098 69.2812 68.75 70.0273Z" fill="#272A33"/>
</svg>
