<svg width="86" height="86" viewBox="0 0 86 86" fill="none" xmlns="http://www.w3.org/2000/svg">
<path d="M50.2025 50.4847L49.7188 50.3906V47.3672C49.7188 47.0108 49.5772 46.669 49.3252 46.417C49.0732 46.165 48.7314 46.0234 48.375 46.0234H37.625C37.2686 46.0234 36.9268 46.165 36.6748 46.417C36.4228 46.669 36.2812 47.0108 36.2812 47.3672V50.3906L35.7975 50.4847C35.5334 50.5378 35.2915 50.6691 35.1029 50.8615C34.9144 51.0539 34.788 51.2985 34.7402 51.5635C34.6924 51.8286 34.7254 52.102 34.8349 52.3481C34.9443 52.5942 35.1252 52.8017 35.3541 52.9438C37.6567 54.3495 40.3022 55.0932 43 55.0932C45.6978 55.0932 48.3433 54.3495 50.6459 52.9438C50.8748 52.8017 51.0557 52.5942 51.1651 52.3481C51.2746 52.102 51.3076 51.8286 51.2598 51.5635C51.212 51.2985 51.0856 51.0539 50.8971 50.8615C50.7085 50.6691 50.4666 50.5378 50.2025 50.4847ZM28.2188 21.5C26.4368 21.5 24.7279 22.2079 23.4679 23.4679C22.2079 24.7279 21.5 26.4368 21.5 28.2188C21.5 30.0007 22.2079 31.7096 23.4679 32.9696C24.7279 34.2296 26.4368 34.9375 28.2188 34.9375C28.5751 34.9375 28.9169 34.7959 29.1689 34.5439C29.4209 34.2919 29.5625 33.9501 29.5625 33.5938V22.8438C29.5625 22.4874 29.4209 22.1456 29.1689 21.8936C28.9169 21.6416 28.5751 21.5 28.2188 21.5ZM57.7812 21.5C57.4249 21.5 57.0831 21.6416 56.8311 21.8936C56.5791 22.1456 56.4375 22.4874 56.4375 22.8438V33.5938C56.4375 33.9501 56.5791 34.2919 56.8311 34.5439C57.0831 34.7959 57.4249 34.9375 57.7812 34.9375C59.5632 34.9375 61.2721 34.2296 62.5321 32.9696C63.7921 31.7096 64.5 30.0007 64.5 28.2188C64.5 26.4368 63.7921 24.7279 62.5321 23.4679C61.2721 22.2079 59.5632 21.5 57.7812 21.5Z" fill="#CC9079"/>
<path d="M57.7808 15.2116L28.2183 14.6338C27.8599 14.6454 27.5172 14.7834 27.2508 15.0235C27.1238 15.1479 27.0228 15.2963 26.9536 15.4601C26.8844 15.6239 26.8484 15.7998 26.8477 15.9775V33.5941C26.8477 37.8707 28.5465 41.9722 31.5706 44.9962C34.5946 48.0202 38.696 49.7191 42.9727 49.7191C47.2493 49.7191 51.3507 48.0202 54.3748 44.9962C57.3988 41.9722 59.0977 37.8707 59.0977 33.5941V16.5554C59.0977 16.2036 58.9599 15.8658 58.7136 15.6146C58.4674 15.3633 58.1325 15.2186 57.7808 15.2116Z" fill="#EDB79F"/>
<path d="M76.4591 63.5863C76.0442 61.1614 74.8997 58.9207 73.1782 57.1632C71.4567 55.4057 69.2402 54.215 66.8244 53.75L50.2023 50.4847C49.8752 50.4181 49.5352 50.4756 49.2482 50.6459C47.3591 51.7739 45.2 52.3695 42.9997 52.3695C40.7995 52.3695 38.6404 51.7739 36.7513 50.6459C36.4643 50.4756 36.1243 50.4181 35.7972 50.4847L19.1751 53.75C16.7593 54.215 14.5428 55.4057 12.8213 57.1632C11.0998 58.9207 9.95526 61.1614 9.54038 63.5863L6.7185 80.41C6.68711 80.6036 6.69847 80.8017 6.75179 80.9904C6.80511 81.1792 6.8991 81.354 7.02715 81.5025C7.15521 81.651 7.31423 81.7698 7.49305 81.8503C7.67186 81.9308 7.86615 81.9713 8.06225 81.9688H77.9372C78.1334 81.9713 78.3276 81.9308 78.5065 81.8503C78.6853 81.7698 78.8443 81.651 78.9723 81.5025C79.1004 81.354 79.1944 81.1792 79.2477 80.9904C79.301 80.8017 79.3124 80.6036 79.281 80.41L76.4591 63.5863ZM49.7185 4.03125H36.281C33.7863 4.03125 31.3938 5.02226 29.6298 6.78628C27.8658 8.55029 26.8748 10.9428 26.8748 13.4375V17.8987C26.8748 18.2551 27.0163 18.5969 27.2683 18.8489C27.5203 19.1009 27.8621 19.2425 28.2185 19.2425H57.781C58.1374 19.2425 58.4792 19.1009 58.7312 18.8489C58.9832 18.5969 59.1247 18.2551 59.1247 17.8987V13.4375C59.1247 10.9428 58.1337 8.55029 56.3697 6.78628C54.6057 5.02226 52.2132 4.03125 49.7185 4.03125Z" fill="#4176FF"/>
<path d="M58.7215 17.0253C53.5634 15.7829 48.2993 15.0315 42.9996 14.7812C37.6999 15.0315 32.4358 15.7829 27.2777 17.0253C26.4023 17.3871 25.6822 18.0456 25.2438 18.8854C24.8054 19.7251 24.6768 20.6924 24.8804 21.6175C25.084 22.5426 25.6069 23.3665 26.3573 23.9446C27.1078 24.5226 28.0378 24.818 28.9843 24.7788C33.5871 23.707 38.2785 23.0593 42.9996 22.8438C47.7207 23.0593 52.4121 23.707 57.0149 24.7788C57.9614 24.818 58.8914 24.5226 59.6419 23.9446C60.3923 23.3665 60.9152 22.5426 61.1188 21.6175C61.3225 20.6924 61.1938 19.7251 60.7554 18.8854C60.317 18.0456 59.5969 17.3871 58.7215 17.0253Z" fill="#01568D"/>
<path d="M63.1562 59.125H22.8438C22.1016 59.125 21.5 59.7266 21.5 60.4688V80.625C21.5 81.3671 22.1016 81.9688 22.8438 81.9688H63.1562C63.8984 81.9688 64.5 81.3671 64.5 80.625V60.4688C64.5 59.7266 63.8984 59.125 63.1562 59.125Z" fill="#D8A063"/>
<path d="M44.3438 71.2188H41.6562V81.9688H44.3438V71.2188Z" fill="#A9784D"/>
<path d="M30.0867 75.3579L22.1451 71.9582C21.358 71.6178 20.5008 71.4707 19.6452 71.5291C18.7897 71.5875 17.9605 71.8498 17.227 72.2941C12.7523 74.9816 14.7813 81.9691 20.3848 81.9691H29.5626C29.919 81.9691 30.2608 81.8276 30.5128 81.5755C30.7648 81.3235 30.9063 80.9818 30.9063 80.6254V76.5941C30.9061 76.3304 30.8283 76.0725 30.6825 75.8527C30.5368 75.6328 30.3295 75.4607 30.0867 75.3579ZM68.7732 72.2941C68.0397 71.8498 67.2105 71.5875 66.3549 71.5291C65.4994 71.4707 64.6422 71.6178 63.8551 71.9582L55.9135 75.3579C55.6707 75.4607 55.4634 75.6328 55.3177 75.8527C55.1719 76.0725 55.0941 76.3304 55.0938 76.5941V80.6254C55.0938 80.9818 55.2354 81.3235 55.4874 81.5755C55.7394 81.8276 56.0812 81.9691 56.4376 81.9691H65.6154C71.2188 81.9691 73.2479 74.9816 68.7732 72.2941Z" fill="#EDB79F"/>
<path d="M48.375 59.125H37.625C37.2686 59.125 36.9268 59.2666 36.6748 59.5186C36.4228 59.7706 36.2812 60.1124 36.2812 60.4688V71.2188C36.2819 71.4478 36.3412 71.6729 36.4533 71.8726C36.5655 72.0723 36.7268 72.2401 36.9221 72.3599C37.1173 72.4797 37.3399 72.5477 37.5688 72.5573C37.7976 72.5668 38.0251 72.5178 38.2297 72.4147L40.3125 71.38L42.4087 72.4147C42.5946 72.507 42.7992 72.5551 43.0067 72.5551C43.2142 72.5551 43.4189 72.507 43.6047 72.4147L45.6875 71.38L47.7703 72.4147C47.9749 72.5178 48.2024 72.5668 48.4312 72.5573C48.6601 72.5477 48.8827 72.4797 49.0779 72.3599C49.2732 72.2401 49.4345 72.0723 49.5467 71.8726C49.6588 71.6729 49.7181 71.4478 49.7188 71.2188V60.4688C49.7188 60.1124 49.5772 59.7706 49.3252 59.5186C49.0732 59.2666 48.7314 59.125 48.375 59.125Z" fill="#624326"/>
</svg>
