<svg width="51" height="50" viewBox="0 0 51 50" fill="none" xmlns="http://www.w3.org/2000/svg">
<circle cx="25.9844" cy="25" r="25" fill="#FAAF3B"/>
<g clip-path="url(#clip0_783_695)">
<path d="M25.484 14.5625C18.1924 14.5625 11.9653 19.0979 9.44238 25.5C11.9653 31.9021 18.1924 36.4375 25.484 36.4375C32.783 36.4375 39.0028 31.9021 41.5257 25.5C39.0028 19.0979 32.783 14.5625 25.484 14.5625ZM25.484 32.7917C21.459 32.7917 18.1924 29.525 18.1924 25.5C18.1924 21.475 21.459 18.2083 25.484 18.2083C29.509 18.2083 32.7757 21.475 32.7757 25.5C32.7757 29.525 29.509 32.7917 25.484 32.7917ZM25.484 21.125C23.0705 21.125 21.109 23.0865 21.109 25.5C21.109 27.9135 23.0705 29.875 25.484 29.875C27.8976 29.875 29.859 27.9135 29.859 25.5C29.859 23.0865 27.8976 21.125 25.484 21.125Z" fill="white"/>
</g>
<defs>
<clipPath id="clip0_783_695">
<rect width="35" height="35" fill="white" transform="translate(7.98438 8)"/>
</clipPath>
</defs>
</svg>
