<svg width="24" height="24" viewBox="0 0 24 24" fill="none" xmlns="http://www.w3.org/2000/svg">
<path opacity="0.4" d="M17.1447 0.429688H21.0626C22.6852 0.429688 24 1.75557 24 3.39186V7.34291C24 8.9792 22.6852 10.3051 21.0626 10.3051H17.1447C15.5221 10.3051 14.2073 8.9792 14.2073 7.34291V3.39186C14.2073 1.75557 15.5221 0.429688 17.1447 0.429688Z" fill="#FAAF3B"/>
<path d="M7.713 13.6966C9.33559 13.6966 10.6504 15.0225 10.6504 16.6588V20.6098C10.6504 22.245 9.33559 23.572 7.713 23.572H3.79505C2.17246 23.572 0.857681 22.245 0.857681 20.6098V16.6588C0.857681 15.0225 2.17246 13.6966 3.79505 13.6966H7.713ZM21.0626 13.6966C22.6852 13.6966 24 15.0225 24 16.6588V20.6098C24 22.245 22.6852 23.572 21.0626 23.572H17.1447C15.5221 23.572 14.2073 22.245 14.2073 20.6098V16.6588C14.2073 15.0225 15.5221 13.6966 17.1447 13.6966H21.0626ZM7.713 0.429688C9.33559 0.429688 10.6504 1.75557 10.6504 3.39186V7.3429C10.6504 8.97919 9.33559 10.3051 7.713 10.3051H3.79505C2.17246 10.3051 0.857681 8.97919 0.857681 7.3429V3.39186C0.857681 1.75557 2.17246 0.429688 3.79505 0.429688H7.713Z" fill="#FAAF3B"/>
</svg>
