<svg width="228" height="113" viewBox="0 0 228 113" fill="none" xmlns="http://www.w3.org/2000/svg">
<path d="M129.537 0.178558H0.44908L0.104532 2.82017C0.0733322 3.05946 -0.628887 8.75611 2.07553 15.0892C4.41233 20.5611 9.76283 27.5279 21.9985 30.6277C21.994 30.6942 21.9881 30.7602 21.9881 30.8281C21.9881 31.0601 22.027 36.5695 25.3938 42.0586C28.0426 46.377 33.2136 51.4001 43.1427 52.7797C43.0509 53.0982 43.0062 53.4361 43.0256 53.7857C43.0356 53.9766 44.3157 72.875 66.6491 72.875H157.353C159.028 72.875 160.386 71.5162 160.386 69.8408C160.386 68.1649 159.028 66.8061 157.353 66.8061H66.6491C59.6622 66.8061 54.6061 64.6023 51.6213 60.2568C49.3619 56.9661 49.0901 53.5469 49.082 53.4424C49.0761 53.3429 49.0648 53.2456 49.0499 53.1497H132.377C134.051 53.1497 135.409 51.7909 135.409 50.1155C135.409 48.4396 134.051 47.0808 132.377 47.0808H48.6836C40.1101 47.0808 34.0573 44.3926 30.6928 39.0904C28.6001 35.7924 28.1665 32.3945 28.0774 31.2325H105.647C107.322 31.2325 108.68 29.8737 108.68 28.1982C108.68 26.5223 107.322 25.164 105.647 25.164H25.3215C9.11126 21.8624 6.43352 11.2539 6.0953 6.24657H129.99L130.228 6.20813C130.312 6.19456 138.668 4.92397 145.289 10.1552C150.06 13.9254 152.807 20.2191 153.452 28.8627C153.571 30.4567 154.9 31.6712 156.473 31.6712C156.55 31.6712 156.626 31.6681 156.702 31.6622C158.373 31.5373 159.626 30.0817 159.501 28.4108C158.725 18.0036 155.208 10.2588 149.049 5.39259C143.226 0.793282 136.525 0.00124359 132.603 0.00124359C131.113 0.00124359 130.025 0.115227 129.537 0.178558Z" fill="white"/>
<path d="M216.836 36.8604C228.287 56.0492 219.422 75.6325 208.635 82.4636C205.162 79.0499 201.744 75.6922 198.29 72.2983C198.742 71.9659 199.308 71.5742 199.846 71.1476C206.378 65.9725 208.819 59.2097 207.184 51.1188C205.584 43.1976 198.895 37.164 190.92 36.0349C182.674 34.867 174.577 38.967 170.717 46.2644C166.891 53.4967 167.887 62.5235 173.461 68.5015C177.705 73.0528 182.204 77.3672 186.629 81.7476C190.536 85.615 194.497 89.4277 198.127 92.9654C196.888 94.5739 195.999 95.7269 194.844 97.2254C188.368 90.6074 182.218 84.3213 176.204 78.175C174.916 79.3448 173.811 80.3485 172.93 81.1496C180.288 88.6063 187.566 95.9811 194.77 103.281C198.05 99.9209 201.336 96.5537 204.918 92.8831C204.171 92.2294 203.151 91.4306 202.239 90.5223C193.846 82.1614 185.385 73.8666 177.127 65.3741C172.468 60.583 171.969 53.153 175.493 47.6011C179.062 41.9772 185.858 39.3903 192.215 41.2363C198.609 43.0931 202.906 48.8771 202.869 55.5779C202.832 62.2489 198.47 67.918 191.978 69.7151C191.103 69.9575 190.212 70.1398 189.644 70.2751C195.683 76.4643 201.748 82.6798 207.805 88.8881C228.211 77.3848 232.475 50.2137 220.186 33.8054C219.045 34.8458 217.91 35.8811 216.836 36.8604Z" fill="white"/>
<path d="M166.541 23.3083C169.059 26.8365 169.038 26.7931 172.725 24.9797C179.782 21.5094 187.173 20.4953 194.906 22.0676C200.684 23.2419 205.777 25.7387 210.863 30.0811C208.268 32.2871 205.924 34.281 203.563 36.2884C214.234 45.8141 216.081 61.3865 205.832 72.5568C206.751 73.8125 207.651 75.0438 208.539 76.2578C217.141 68.4415 222.168 51.5225 210.18 36.003C212.505 34.0209 214.912 31.9687 217.273 29.9553C209.501 20.7572 198.373 16.5953 187.803 16.5962C179.841 16.5962 172.194 18.9583 166.541 23.3083Z" fill="white"/>
<path d="M165.905 74.8778C163.549 77.0309 161.272 79.1111 159.154 81.0476C168.915 90.8591 178.531 100.524 188.312 110.355C189.243 109.346 190.23 108.276 191.512 106.887C182.895 98.2533 174.418 89.7608 165.497 80.8232C167.824 78.8316 170.17 76.8237 172.596 74.747C171.523 73.6022 170.8 72.8694 170.121 72.1C163.588 64.699 162.012 56.277 165.106 46.9739C166.289 43.4154 166.267 43.12 162.59 40.9276C156.607 52.7633 157.713 63.901 165.905 74.8778Z" fill="white"/>
<path d="M180.063 55.068C179.893 59.5574 183.314 63.2624 187.77 63.4131C192.284 63.5655 195.946 60.1517 196.069 55.6759C196.192 51.2141 192.659 47.4865 188.244 47.42C188.203 47.4195 188.162 47.4191 188.121 47.4191C183.823 47.4195 180.224 50.822 180.063 55.068Z" fill="white"/>
<path d="M182.831 46.4237C183.516 46.9809 184.148 47.5762 184.765 48.1828C185.379 48.7912 185.97 49.4158 186.542 50.055C187.119 50.6905 187.67 51.3446 188.215 52.0032C188.756 52.664 189.282 53.3362 189.797 54.016L190.256 54.6204L189.864 55.3287C189.332 56.2899 188.786 57.2421 188.21 58.1775C187.641 59.117 187.036 60.0352 186.416 60.9453C185.79 61.8513 185.137 62.7424 184.448 63.6123C183.757 64.4812 183.039 65.3347 182.232 66.1367C182.522 65.0362 182.902 63.9877 183.308 62.9546C183.717 61.9223 184.161 60.9109 184.632 59.9149C185.11 58.9234 185.602 57.9396 186.13 56.9766C186.652 56.0099 187.203 55.06 187.769 54.1192L187.835 55.4318C187.353 54.728 186.882 54.0165 186.425 53.2946C185.972 52.5699 185.526 51.8403 185.105 51.0926C184.679 50.3481 184.273 49.5895 183.89 48.8147C183.508 48.038 183.143 47.2496 182.831 46.4237Z" fill="white"/>
<path d="M70.349 80.7258V106.85H59.4513C57.1552 106.85 54.9758 106.5 53.6523 105.371C52.4464 104.358 52.0177 102.684 52.0177 100.387V93.6905H46.5691V101.049C46.5691 104.203 47.2695 107.317 49.1767 109.108C51.5511 111.366 54.4309 112.301 59.0625 112.301H75.7977V80.7258H70.349ZM62.1757 91.0426C59.1403 91.0426 57.2719 92.3665 57.2719 95.8707V98.7123H65.7564V95.7929H60.3855V94.7417C60.3855 93.4956 60.9304 92.7949 62.4867 92.7949H64.5107V91.0426H62.1757Z" fill="white"/>
<path d="M87.8585 90.3808V95.8314H90.194C91.5948 95.8314 92.8405 96.4543 93.502 97.3114C94.2024 98.2066 94.5529 99.3352 94.5529 100.893V106.85H80.9702V112.301H104.205V106.85H100.002V101.126C100.002 97.9343 99.3789 95.0529 97.7443 93.3011C95.7982 91.2375 93.1516 90.3808 89.6491 90.3808H87.8585Z" fill="white"/>
<path d="M107.666 84.1513C107.666 86.0597 109.145 87.0715 110.857 87.0715C112.57 87.0715 114.049 86.0597 114.049 84.1513C114.049 82.4383 112.686 81.2704 110.857 81.2704C109.067 81.2704 107.666 82.4383 107.666 84.1513ZM108.289 90.3808V106.85H103.462V112.301H117.902V106.85H113.737V90.3808H108.289Z" fill="white"/>
<path d="M118.913 94.469L123.739 106.85H117.161V112.301H145.34V106.85H138.179L142.849 94.5079C139.268 91.2375 135.376 88.9406 130.862 88.9406C126.386 88.9406 122.649 91.2375 118.913 94.469ZM125.024 96.8048C127.009 95.3646 128.721 94.7024 130.862 94.7024C133.08 94.7024 134.598 95.2863 136.777 96.7659L133.235 106.85H128.565L125.024 96.8048Z" fill="white"/>
<path d="M148.372 80.7258V106.85H144.558V112.301H153.821V80.7258H148.372Z" fill="white"/>
</svg>
