<svg width="130" height="66" viewBox="0 0 130 66" fill="none" xmlns="http://www.w3.org/2000/svg">
<path d="M74.1681 1.09937H0.257127L0.059851 2.61186C0.0419873 2.74887 -0.360077 6.01056 1.18837 9.63666C2.52634 12.7696 5.58983 16.7586 12.5955 18.5334C12.5929 18.5715 12.5896 18.6093 12.5896 18.6482C12.5896 18.781 12.6118 21.9355 14.5396 25.0783C16.0562 27.5509 19.0169 30.4269 24.7019 31.2168C24.6494 31.3992 24.6237 31.5926 24.6349 31.7928C24.6406 31.9021 25.3735 42.7227 38.1608 42.7227H90.0942C91.0537 42.7227 91.8312 41.9447 91.8312 40.9854C91.8312 40.0258 91.0537 39.2478 90.0942 39.2478H38.1608C34.1604 39.2478 31.2654 37.986 29.5565 35.4979C28.2628 33.6138 28.1072 31.6561 28.1025 31.5963C28.0991 31.5393 28.0927 31.4836 28.0841 31.4287H75.794C76.7529 31.4287 77.5304 30.6507 77.5304 29.6914C77.5304 28.7319 76.7529 27.9539 75.794 27.9539H27.8744C22.9655 27.9539 19.5 26.4147 17.5735 23.3788C16.3754 21.4905 16.1271 19.545 16.0761 18.8797H60.4897C61.4486 18.8797 62.2261 18.1017 62.2261 17.1424C62.2261 16.1828 61.4486 15.4051 60.4897 15.4051H14.4981C5.21677 13.5147 3.68359 7.44069 3.48994 4.57369H74.4273L74.5639 4.55168C74.6116 4.54391 79.396 3.81642 83.187 6.81161C85.9191 8.97028 87.4916 12.5738 87.8608 17.5229C87.9288 18.4355 88.6903 19.1309 89.5907 19.1309C89.6345 19.1309 89.6779 19.1291 89.722 19.1257C90.6783 19.0542 91.396 18.2208 91.3245 17.2641C90.88 11.3053 88.8663 6.87093 85.3397 4.08473C82.0061 1.45134 78.1691 0.997849 75.9234 0.997849C75.0706 0.997849 74.4477 1.06311 74.1681 1.09937Z" fill="#FAAF3B"/>
<path d="M124.152 22.0949C130.709 33.0817 125.633 44.2943 119.457 48.2056C117.468 46.251 115.511 44.3285 113.534 42.3853C113.792 42.195 114.116 41.9707 114.425 41.7265C118.165 38.7634 119.562 34.8913 118.626 30.2587C117.71 25.7233 113.88 22.2687 109.314 21.6223C104.592 20.9536 99.9565 23.301 97.7463 27.4793C95.5555 31.6202 96.1261 36.7886 99.3175 40.2114C101.748 42.8173 104.323 45.2876 106.857 47.7956C109.094 50.01 111.362 52.193 113.44 54.2185C112.731 55.1395 112.222 55.7996 111.56 56.6577C107.853 52.8684 104.331 49.2692 100.888 45.7501C100.151 46.4199 99.5179 46.9946 99.0131 47.4532C103.226 51.7226 107.393 55.9452 111.518 60.125C113.396 58.201 115.278 56.2731 117.329 54.1714C116.901 53.7971 116.317 53.3398 115.795 52.8197C110.989 48.0326 106.145 43.2833 101.416 38.4208C98.749 35.6776 98.4632 31.4234 100.481 28.2446C102.524 25.0246 106.416 23.5434 110.055 24.6004C113.716 25.6635 116.176 28.9752 116.155 32.8118C116.134 36.6314 113.637 39.8773 109.919 40.9063C109.418 41.0451 108.908 41.1495 108.583 41.2269C112.041 44.7706 115.513 48.3294 118.982 51.884C130.665 45.2977 133.107 29.7405 126.07 20.3457C125.417 20.9414 124.767 21.5342 124.152 22.0949Z" fill="#FAAF3B"/>
<path d="M95.355 14.3393C96.7968 16.3595 96.7846 16.3346 98.8962 15.2963C102.937 13.3094 107.168 12.7287 111.596 13.6289C114.904 14.3013 117.82 15.7309 120.732 18.2172C119.247 19.4803 117.904 20.6219 116.553 21.7713C122.662 27.2253 123.72 36.1415 117.852 42.5372C118.378 43.2562 118.893 43.9611 119.402 44.6562C124.327 40.1809 127.205 30.4937 120.341 21.6078C121.672 20.473 123.051 19.2979 124.402 18.1452C119.952 12.8787 113.581 10.4957 107.529 10.4962C102.97 10.4962 98.592 11.8487 95.355 14.3393Z" fill="#FAAF3B"/>
<path d="M94.9909 43.8626C93.6418 45.0953 92.3386 46.2864 91.1257 47.3952C96.7147 53.0129 102.22 58.5469 107.82 64.1758C108.354 63.5977 108.919 62.9852 109.652 62.1899C104.719 57.2466 99.8652 52.3841 94.7572 47.2667C96.0897 46.1264 97.4328 44.9767 98.8221 43.7877C98.2077 43.1322 97.794 42.7127 97.4051 42.2721C93.6646 38.0346 92.7619 33.2125 94.5335 27.8858C95.211 25.8484 95.1986 25.6793 93.093 24.4239C89.6673 31.2006 90.3006 37.5777 94.9909 43.8626Z" fill="#FAAF3B"/>
<path d="M103.097 32.5238C103 35.0943 104.959 37.2156 107.51 37.3019C110.095 37.3892 112.191 35.4346 112.262 32.8719C112.332 30.3172 110.31 28.1829 107.781 28.1448C107.758 28.1446 107.735 28.1443 107.711 28.1443C105.25 28.1446 103.189 30.0927 103.097 32.5238Z" fill="#FAAF3B"/>
<path d="M104.682 27.5724C105.074 27.8915 105.436 28.2323 105.789 28.5796C106.141 28.928 106.48 29.2856 106.807 29.6516C107.137 30.0154 107.453 30.3899 107.765 30.767C108.075 31.1454 108.376 31.5303 108.671 31.9195L108.933 32.2655L108.709 32.6711C108.405 33.2215 108.092 33.7666 107.762 34.3022C107.436 34.8401 107.09 35.3659 106.735 35.887C106.377 36.4057 106.002 36.9159 105.608 37.414C105.212 37.9115 104.801 38.4002 104.339 38.8594C104.506 38.2293 104.723 37.6289 104.955 37.0374C105.19 36.4464 105.444 35.8673 105.714 35.297C105.987 34.7293 106.269 34.166 106.571 33.6146C106.87 33.0611 107.185 32.5173 107.509 31.9786L107.548 32.7302C107.272 32.3272 107.002 31.9198 106.74 31.5064C106.481 31.0915 106.225 30.6738 105.984 30.2457C105.74 29.8194 105.508 29.3851 105.288 28.9414C105.07 28.4967 104.861 28.0453 104.682 27.5724Z" fill="#FAAF3B"/>
<path d="M40.2793 47.2143V62.1719H34.0397C32.725 62.1719 31.4772 61.9714 30.7194 61.325C30.0289 60.7454 29.7835 59.7869 29.7835 58.4715V54.6374H26.6638V58.8504C26.6638 60.6563 27.0648 62.4394 28.1568 63.4648C29.5163 64.7576 31.1652 65.293 33.817 65.293H43.399V47.2143H40.2793ZM35.5995 53.1213C33.8616 53.1213 32.7918 53.8794 32.7918 55.8857V57.5127H37.6497V55.8412H34.5746V55.2393C34.5746 54.5258 34.8865 54.1246 35.7777 54.1246H36.9365V53.1213H35.5995Z" fill="#FAAF3B"/>
<path d="M50.3045 52.7424V55.8632H51.6417C52.4438 55.8632 53.157 56.2198 53.5358 56.7106C53.9368 57.2232 54.1374 57.8693 54.1374 58.7613V62.1719H46.3605V65.293H59.6638V62.1719H57.2571V58.8949C57.2571 57.0672 56.9006 55.4175 55.9647 54.4144C54.8504 53.2329 53.3351 52.7424 51.3297 52.7424H50.3045Z" fill="#FAAF3B"/>
<path d="M61.6456 49.1756C61.6456 50.2683 62.4922 50.8476 63.4726 50.8476C64.4533 50.8476 65.3002 50.2683 65.3002 49.1756C65.3002 48.1948 64.5201 47.5261 63.4726 47.5261C62.4477 47.5261 61.6456 48.1948 61.6456 49.1756ZM62.0021 52.7424V62.1719H59.2387V65.293H67.5062V62.1719H65.1218V52.7424H62.0021Z" fill="#FAAF3B"/>
<path d="M68.0853 55.0831L70.8484 62.1719H67.0823V65.293H83.2161V62.1719H79.116L81.7901 55.1054C79.7399 53.2329 77.5116 51.9178 74.9265 51.9178C72.3638 51.9178 70.2245 53.2329 68.0853 55.0831ZM71.584 56.4205C72.7205 55.5959 73.7009 55.2168 74.9265 55.2168C76.1967 55.2168 77.0658 55.5511 78.3137 56.3983L76.2857 62.1719H73.6116L71.584 56.4205Z" fill="#FAAF3B"/>
<path d="M84.9523 47.2143V62.1719H82.7685V65.293H88.072V47.2143H84.9523Z" fill="#FAAF3B"/>
</svg>
