<svg width="82" height="82" viewBox="0 0 82 82" fill="none" xmlns="http://www.w3.org/2000/svg">
<path d="M69.8281 7.6875V48.6875C66.9866 46.4047 63.4966 45.0778 59.8562 44.8964C56.2157 44.7149 52.611 45.6881 49.5566 47.677C46.5022 49.666 44.1541 52.569 42.8476 55.9717C41.541 59.3744 41.3428 63.1029 42.2812 66.625H10.8906C9.53139 66.625 8.22783 66.085 7.2667 65.1239C6.30558 64.1628 5.76563 62.8592 5.76562 61.5V7.6875C5.76562 6.32827 6.30558 5.0247 7.2667 4.06358C8.22783 3.10245 9.53139 2.5625 10.8906 2.5625H26.9062V33.3125H48.6875V2.5625H64.7031C66.0624 2.5625 67.3659 3.10245 68.327 4.06358C69.2882 5.0247 69.8281 6.32827 69.8281 7.6875Z" fill="#FCD8AA"/>
<path d="M26.9062 2.5625H48.6875V33.3125H26.9062V2.5625Z" fill="#FFC578"/>
<path d="M76.2344 62.1403C76.2309 66.0639 74.8935 69.8698 72.4418 72.9332C69.99 75.9965 66.5696 78.1352 62.7421 78.9983C58.9145 79.8613 54.9072 79.3973 51.3781 77.6825C47.849 75.9678 45.0078 73.104 43.3209 69.5615C41.6339 66.019 41.2016 62.0082 42.0948 58.1875C42.9879 54.3669 45.1536 50.9634 48.2362 48.5359C51.3188 46.1084 55.1351 44.8011 59.0586 44.8285C62.9822 44.856 66.7799 46.2167 69.8281 48.6871C71.8317 50.3098 73.447 52.3601 74.5554 54.6879C75.6639 57.0157 76.2376 59.562 76.2344 62.1403Z" fill="#7FD73C"/>
<path d="M64.7031 0H10.8906C8.85177 0 6.89643 0.809931 5.45474 2.25162C4.01306 3.6933 3.20313 5.64865 3.20312 7.6875V61.5C3.20313 63.5389 4.01306 65.4942 5.45474 66.9359C6.89643 68.3776 8.85177 69.1875 10.8906 69.1875H40.3594C41.4217 71.9846 43.1026 74.5054 45.2766 76.5612C47.4505 78.617 50.0611 80.1546 52.9132 81.0592C55.7652 81.9637 58.7849 82.2117 61.7463 81.7845C64.7077 81.3574 67.5341 80.2662 70.0143 78.5926C72.4945 76.9189 74.5642 74.7062 76.0686 72.1198C77.5729 69.5335 78.473 66.6405 78.7016 63.6572C78.9301 60.6739 78.4811 57.6775 77.3883 54.8922C76.2954 52.1069 74.5869 49.6047 72.3906 47.5728V7.6875C72.3906 5.64865 71.5807 3.6933 70.139 2.25162C68.6973 0.809931 66.742 0 64.7031 0ZM29.4688 5.125H46.125V30.75H29.4688V5.125ZM39.1806 64.0625H10.8906C10.211 64.0625 9.55923 63.7925 9.07866 63.312C8.5981 62.8314 8.32812 62.1796 8.32812 61.5V7.6875C8.32812 7.00788 8.5981 6.3561 9.07866 5.87554C9.55923 5.39498 10.211 5.125 10.8906 5.125H24.3438V33.3125C24.3438 33.9921 24.6137 34.6439 25.0943 35.1245C25.5749 35.605 26.2266 35.875 26.9062 35.875H48.6875C49.3671 35.875 50.0189 35.605 50.4995 35.1245C50.98 34.6439 51.25 33.9921 51.25 33.3125V5.125H64.7031C65.3827 5.125 66.0345 5.39498 66.5151 5.87554C66.9957 6.3561 67.2656 7.00788 67.2656 7.6875V44.1391C64.2479 42.7302 60.9236 42.105 57.6002 42.3212C54.2768 42.5374 51.0615 43.5882 48.2517 45.3762C45.442 47.1642 43.1284 49.6318 41.525 52.5509C39.9215 55.4699 39.08 58.7461 39.0781 62.0766C39.0774 62.7399 39.1117 63.4028 39.1806 64.0625ZM73.6719 62.1406C73.6719 65.0548 72.8077 67.9035 71.1887 70.3266C69.5696 72.7497 67.2685 74.6382 64.5761 75.7534C61.8837 76.8686 58.9212 77.1604 56.063 76.5919C53.2048 76.0234 50.5794 74.62 48.5187 72.5594C46.4581 70.4988 45.0548 67.8733 44.4862 65.0152C43.9177 62.157 44.2095 59.1944 45.3247 56.502C46.4399 53.8097 48.3285 51.5085 50.7515 49.8894C53.1746 48.2704 56.0233 47.4062 58.9375 47.4062C62.8443 47.4096 66.59 48.9631 69.3525 51.7256C72.115 54.4881 73.6685 58.2339 73.6719 62.1406Z" fill="black"/>
<path d="M56.0931 65.5615L48.3031 57.7715L44.6772 61.3846L54.2866 70.994C54.7649 71.4752 55.4146 71.7471 56.0931 71.7499C56.4313 71.7502 56.7661 71.6835 57.0784 71.5538C57.3906 71.4241 57.6741 71.2338 57.9125 70.994L72.0063 56.9002L68.3803 53.2871L56.0931 65.5615ZM12.1719 55.0937H17.2969V60.2187H12.1719V55.0937ZM19.8594 55.0937H24.9844V60.2187H19.8594V55.0937Z" fill="black"/>
</svg>
