<svg width="73" height="73" viewBox="0 0 73 73" fill="none" xmlns="http://www.w3.org/2000/svg">
<g clip-path="url(#clip0_649_419)">
<path d="M37.1533 47.6533C43.6971 47.6533 49.002 42.3485 49.002 35.8047C49.002 29.2609 43.6971 23.9561 37.1533 23.9561C30.6095 23.9561 25.3047 29.2609 25.3047 35.8047C25.3047 42.3485 30.6095 47.6533 37.1533 47.6533Z" fill="#FFB6B6"/>
<path d="M30.3513 49.4059L29.816 43.9949L40.5054 41.9961L46.8174 57.3645L35.84 69.9886L28.0186 54.6202L30.3513 49.4059Z" fill="#FFB6B6"/>
<path d="M29.6447 46.7036L31.9816 47.2317C31.9816 47.2317 30.1445 41.4061 30.7681 40.85C31.3917 40.2938 32.9197 41.1701 32.9197 41.1701L34.5254 42.9704L36.4813 40.9791C36.4813 40.9791 38.6048 38.3387 39.4362 37.5971C40.2676 36.8556 38.9321 34.1031 38.9321 34.1031C38.9321 34.1031 51.2669 30.777 46.6771 24.7942C46.6771 24.7942 43.9862 20.1035 43.1098 21.6315C42.2335 23.1596 41.1885 20.7328 41.1885 20.7328L37.9977 21.3395C37.9977 21.3395 31.7002 17.6263 25.7231 25.5699C19.746 33.5135 29.6447 46.7036 29.6447 46.7036H29.6447V46.7036Z" fill="#2F2E41"/>
<path d="M59.4372 64.8972C52.9619 70.1471 44.9511 72.9999 36.4999 72.9999C28.7827 72.9999 21.4319 70.6205 15.2832 66.2104C15.2942 66.0951 15.3052 65.9812 15.3148 65.8673C15.4781 64.0835 15.6235 62.349 15.7196 60.911C16.0914 55.3276 29.1175 51.6062 29.1175 51.6062C29.1175 51.6062 29.1765 51.6652 29.2945 51.7682C30.0136 52.3994 32.9322 54.6882 38.0504 55.3276C42.6143 55.8984 44.1168 53.1911 44.571 51.8944C44.7082 51.4992 44.7494 51.2344 44.7494 51.2344L58.1474 57.5615C59.0215 58.8102 59.3631 61.4997 59.4304 64.5226C59.4331 64.6474 59.4359 64.7709 59.4372 64.8972Z" fill="#FAAF3B"/>
<path d="M62.3093 10.6907C55.4155 3.79682 46.2493 0 36.5 0C26.7507 0 17.5845 3.79682 10.6907 10.6907C3.79683 17.5845 0 26.7507 0 36.5C0 45.3986 3.16288 53.8114 8.95897 60.4542C9.51196 61.0895 10.0896 61.7083 10.6907 62.3093C10.832 62.4507 10.9747 62.592 11.1188 62.7292C11.503 63.1011 11.8941 63.4647 12.292 63.8174C12.5335 64.0328 12.7778 64.2441 13.0247 64.4513C13.2182 64.6146 13.4117 64.7751 13.6079 64.933C13.612 64.9371 13.6148 64.9398 13.6189 64.9426C14.1637 65.3817 14.718 65.8043 15.2833 66.2104C21.4321 70.6206 28.7829 73 36.5 73C44.9513 73 52.9621 70.1472 59.4374 64.8973C59.9657 64.4692 60.483 64.0246 60.9907 63.5649C61.4394 63.1587 61.8785 62.7402 62.3093 62.3093C62.4452 62.1735 62.581 62.0363 62.7141 61.8977C63.0846 61.5162 63.4441 61.1279 63.7954 60.7341C69.7466 54.0488 73 45.5248 73 36.5C73 26.7507 69.2032 17.5845 62.3093 10.6907V10.6907ZM63.7062 60.3924C63.3632 60.7821 63.0119 61.1663 62.6524 61.5409C62.0925 62.1241 61.5149 62.6894 60.918 63.2342C60.6915 63.4428 60.4624 63.6458 60.2305 63.8476C59.967 64.0767 59.7008 64.3017 59.4305 64.5227C57.2995 66.2722 54.9654 67.7816 52.4694 69.0111C51.4828 69.4982 50.4715 69.9414 49.4369 70.338C45.4178 71.8803 41.0556 72.7256 36.5 72.7256C32.1035 72.7256 27.8882 71.9379 23.9871 70.4971C22.3858 69.9071 20.8379 69.2059 19.3519 68.4032C19.1337 68.2852 18.9169 68.1658 18.7015 68.0437C17.568 67.4015 16.4717 66.7003 15.4192 65.9429C15.3849 65.9182 15.3492 65.8921 15.3149 65.8674C14.5657 65.3268 13.8371 64.7573 13.1331 64.159C12.8752 63.9409 12.6199 63.7199 12.3688 63.4935C11.9599 63.1299 11.5593 62.7553 11.1682 62.3711C10.4272 61.6452 9.71916 60.8891 9.04267 60.1029C3.58002 53.7579 0.274436 45.5084 0.274436 36.5C0.274436 16.5252 16.5252 0.274436 36.5 0.274436C56.4748 0.274436 72.7256 16.5252 72.7256 36.5C72.7256 45.647 69.3184 54.0118 63.7062 60.3924Z" fill="white"/>
</g>
<defs>
<clipPath id="clip0_649_419">
<rect width="73" height="73" fill="white"/>
</clipPath>
</defs>
</svg>
