<svg width="82" height="82" viewBox="0 0 82 82" fill="none" xmlns="http://www.w3.org/2000/svg">
<path d="M35.875 53.8125H5.125C4.78519 53.8125 4.4593 53.9475 4.21902 54.1878C3.97874 54.4281 3.84375 54.7539 3.84375 55.0938V78.1562C3.84375 78.4961 3.97874 78.8219 4.21902 79.0622C4.4593 79.3025 4.78519 79.4375 5.125 79.4375H35.875C36.2148 79.4375 36.5407 79.3025 36.781 79.0622C37.0213 78.8219 37.1562 78.4961 37.1562 78.1562V55.0938C37.1562 54.7539 37.0213 54.4281 36.781 54.1878C36.5407 53.9475 36.2148 53.8125 35.875 53.8125ZM25.625 46.125H56.375C56.7148 46.125 57.0407 45.99 57.281 45.7497C57.5213 45.5095 57.6562 45.1836 57.6562 44.8438V21.7812C57.6562 21.4414 57.5213 21.1155 57.281 20.8753C57.0407 20.635 56.7148 20.5 56.375 20.5H25.625C25.2852 20.5 24.9593 20.635 24.719 20.8753C24.4787 21.1155 24.3438 21.4414 24.3438 21.7812V44.8438C24.3438 45.1836 24.4787 45.5095 24.719 45.7497C24.9593 45.99 25.2852 46.125 25.625 46.125ZM76.875 53.8125H46.125C45.7852 53.8125 45.4593 53.9475 45.219 54.1878C44.9787 54.4281 44.8438 54.7539 44.8438 55.0938V78.1562C44.8438 78.4961 44.9787 78.8219 45.219 79.0622C45.4593 79.3025 45.7852 79.4375 46.125 79.4375H76.875C77.2148 79.4375 77.5407 79.3025 77.781 79.0622C78.0213 78.8219 78.1562 78.4961 78.1562 78.1562V55.0938C78.1562 54.7539 78.0213 54.4281 77.781 54.1878C77.5407 53.9475 77.2148 53.8125 76.875 53.8125Z" fill="#FF8000"/>
<path d="M37.1562 46.1251H3.84375C3.50394 46.1251 3.17805 46.2601 2.93777 46.5003C2.69749 46.7406 2.5625 47.0665 2.5625 47.4063V55.0938C2.5625 55.4336 2.69749 55.7595 2.93777 55.9998C3.17805 56.2401 3.50394 56.3751 3.84375 56.3751H37.1562C37.4961 56.3751 37.8219 56.2401 38.0622 55.9998C38.3025 55.7595 38.4375 55.4336 38.4375 55.0938V47.4063C38.4375 47.0665 38.3025 46.7406 38.0622 46.5003C37.8219 46.2601 37.4961 46.1251 37.1562 46.1251ZM23.2098 22.6372C23.3238 22.9573 23.56 23.2192 23.8667 23.3654C24.1734 23.5117 24.5255 23.5304 24.846 23.4175L56.2469 12.2988C56.4056 12.2427 56.5517 12.1558 56.6768 12.0432C56.8019 11.9305 56.9036 11.7944 56.9761 11.6424C57.0485 11.4905 57.0903 11.3257 57.0991 11.1576C57.1079 10.9895 57.0834 10.8213 57.0272 10.6626L54.4621 3.41589C54.406 3.25741 54.3191 3.11156 54.2066 2.98669C54.094 2.86181 53.9579 2.76036 53.8061 2.68814C53.499 2.54259 53.1469 2.52372 52.8259 2.6356L21.4238 13.7543C21.1043 13.8691 20.8431 14.1054 20.697 14.4118C20.5508 14.7182 20.5316 15.0699 20.6435 15.3904L23.2098 22.6372ZM78.1562 46.1251H44.8438C44.5039 46.1251 44.1781 46.2601 43.9378 46.5003C43.6975 46.7406 43.5625 47.0665 43.5625 47.4063V55.0938C43.5625 55.4336 43.6975 55.7595 43.9378 55.9998C44.1781 56.2401 44.5039 56.3751 44.8438 56.3751H78.1562C78.4961 56.3751 78.822 56.2401 79.0622 55.9998C79.3025 55.7595 79.4375 55.4336 79.4375 55.0938V47.4063C79.4375 47.0665 79.3025 46.7406 79.0622 46.5003C78.822 46.2601 78.4961 46.1251 78.1562 46.1251Z" fill="#4D4D4D"/>
<path d="M62.8326 14.2104H67.9576V16.7729H62.8326V14.2104ZM70.5201 14.2104H73.0826V16.7729H70.5201V14.2104ZM65.3887 6.68821L66.6162 8.9368L62.119 11.3917L60.8903 9.1418L65.3887 6.68821ZM69.8872 4.22949L71.1146 6.47937L68.8648 7.7068L67.6373 5.45693L69.8872 4.22949ZM62.1151 19.5866L66.6149 22.0427L65.3874 24.2926L60.8877 21.8351L62.1151 19.5866ZM68.8596 23.2676L71.1095 24.4976L69.8808 26.7449L67.6322 25.5175L68.8596 23.2676Z" fill="#CCCCCC"/>
<path d="M24.3694 66.625H16.6306C15.6184 66.6236 14.648 66.2209 13.9323 65.5052C13.2166 64.7895 12.8139 63.8191 12.8125 62.8069C12.8125 60.6505 14.5255 58.9375 16.6306 58.9375H24.3694C25.3816 58.9389 26.352 59.3416 27.0677 60.0573C27.7834 60.773 28.1861 61.7434 28.1875 62.7556C28.1875 64.912 26.4745 66.625 24.3694 66.625ZM16.6306 61.5C16.2976 61.5 15.9782 61.6323 15.7428 61.8678C15.5073 62.1032 15.375 62.4226 15.375 62.7556C15.375 63.5 15.9375 64.0625 16.6306 64.0625H24.3694C24.7024 64.0625 25.0218 63.9302 25.2572 63.6947C25.4927 63.4593 25.625 63.1399 25.625 62.8069C25.625 62.0625 25.0625 61.5 24.3694 61.5H16.6306ZM65.3694 66.625H57.6306C56.6184 66.6236 55.648 66.2209 54.9323 65.5052C54.2166 64.7895 53.8139 63.8191 53.8125 62.8069C53.8125 60.6505 55.5255 58.9375 57.6306 58.9375H65.3694C66.3816 58.9389 67.352 59.3416 68.0677 60.0573C68.7834 60.773 69.1861 61.7434 69.1875 62.7556C69.1875 64.912 67.4745 66.625 65.3694 66.625ZM57.6306 61.5C57.2976 61.5 56.9782 61.6323 56.7428 61.8678C56.5073 62.1032 56.375 62.4226 56.375 62.7556C56.375 63.5 56.9375 64.0625 57.6306 64.0625H65.3694C65.7024 64.0625 66.0218 63.9302 66.2572 63.6947C66.4927 63.4593 66.625 63.1399 66.625 62.8069C66.625 62.0625 66.0625 61.5 65.3694 61.5H57.6306ZM44.8694 33.3125H37.1306C36.1184 33.3111 35.148 32.9084 34.4323 32.1927C33.7166 31.477 33.3139 30.5066 33.3125 29.4944C33.3125 27.338 35.0255 25.625 37.1306 25.625H44.8694C45.8816 25.6264 46.852 26.0291 47.5677 26.7448C48.2834 27.4605 48.6861 28.4309 48.6875 29.4431C48.6875 31.5995 46.9745 33.3125 44.8694 33.3125ZM37.1306 28.1875C36.7976 28.1875 36.4782 28.3198 36.2428 28.5553C36.0073 28.7907 35.875 29.1101 35.875 29.4431C35.875 30.1875 36.4375 30.75 37.1306 30.75H44.8694C45.0343 30.75 45.1975 30.7175 45.3499 30.6544C45.5022 30.5913 45.6406 30.4988 45.7572 30.3822C45.8738 30.2656 45.9663 30.1272 46.0294 29.9749C46.0925 29.8225 46.125 29.6593 46.125 29.4944C46.125 28.75 45.5625 28.1875 44.8694 28.1875H37.1306Z" fill="white"/>
<path d="M35.875 42.2814C31.9217 42.286 28.0053 41.5218 24.3438 40.0315V44.8439C24.3438 45.1837 24.4787 45.5096 24.719 45.7499C24.9593 45.9902 25.2852 46.1251 25.625 46.1251H56.375C56.7148 46.1251 57.0407 45.9902 57.281 45.7499C57.5213 45.5096 57.6562 45.1837 57.6562 44.8439V32.7207C52.767 38.5043 44.845 42.2814 35.875 42.2814ZM15.375 75.5939C11.4218 75.5985 7.50532 74.8343 3.84375 73.344V78.1564C3.84375 78.4962 3.97874 78.8221 4.21902 79.0624C4.4593 79.3027 4.78519 79.4376 5.125 79.4376H35.875C36.2148 79.4376 36.5407 79.3027 36.781 79.0624C37.0213 78.8221 37.1562 78.4962 37.1562 78.1564V66.0332C32.267 71.8168 24.345 75.5939 15.375 75.5939ZM56.375 75.5939C52.4217 75.5985 48.5053 74.8343 44.8438 73.344V78.1564C44.8438 78.4962 44.9787 78.8221 45.219 79.0624C45.4593 79.3027 45.7852 79.4376 46.125 79.4376H76.875C77.2148 79.4376 77.5407 79.3027 77.781 79.0624C78.0213 78.8221 78.1562 78.4962 78.1562 78.1564V66.0332C73.267 71.8168 65.345 75.5939 56.375 75.5939Z" fill="#E57300"/>
<path d="M47.4062 38.4375H52.5312V41H47.4062V38.4375ZM26.9062 71.75H32.0312V74.3125H26.9062V71.75ZM67.9062 71.75H73.0312V74.3125H67.9062V71.75Z" fill="white"/>
</svg>
