<svg width="24" height="24" viewBox="0 0 24 24" fill="none" xmlns="http://www.w3.org/2000/svg">
<path d="M4.8877 1.99609C3.30357 1.99609 2.00098 3.30647 2.00098 4.89062V19.1074C2.00098 20.6915 3.30357 22.002 4.8877 22.002H19.1123C20.6964 22.002 21.999 20.6915 21.999 19.1074V4.89062C21.999 3.30647 20.6964 1.99609 19.1123 1.99609H4.8877ZM4.8877 3.99805H8.99902V11.002C9.00624 11.8875 10.076 12.3274 10.7041 11.7031L12.0049 10.4121L13.2959 11.7031C13.924 12.3274 14.9937 11.8875 15.001 11.002V3.99805H19.1123C19.6156 3.99805 19.999 4.38739 19.999 4.89062V19.1074C19.999 19.6107 19.6156 20.002 19.1123 20.002H4.8877C4.38445 20.002 4.00293 19.6107 4.00293 19.1074V4.89062C4.00293 4.38739 4.38445 3.99805 4.8877 3.99805ZM10.999 3.99805H13.001V8.58789L12.7061 8.29298C12.316 7.90521 11.686 7.90521 11.2959 8.29298L10.999 8.58789L10.999 3.99805Z" fill="#FAAF3B"/>
</svg>
