<svg width="72" height="71" viewBox="0 0 72 71" fill="none" xmlns="http://www.w3.org/2000/svg">
<g clip-path="url(#clip0_717_1199)">
<path d="M66.3973 6.0498V64.9058H5.60352V6.0646L66.3973 6.0498Z" fill="#FFE6A2"/>
<path d="M60.4507 36.7871H46.0732V64.9061H60.4507V36.7871Z" fill="#FFB044"/>
<path d="M38.9834 36.793H13.1113V52.6718H38.9834V36.793Z" fill="#FFB044"/>
<path d="M66.3986 1.10938H5.56641V6.04387H66.3986V1.10938Z" fill="#FFC261"/>
<path d="M70.3906 64.9072H1.60938V69.892H70.3906V64.9072Z" fill="#FFC261"/>
<path d="M46.0735 61.7109H5.60352V64.9059H46.0735V61.7109Z" fill="#FFD486"/>
<path d="M66.3964 61.7109H60.4502V64.9059H66.3964V61.7109Z" fill="#FFD486"/>
<path d="M60.4507 61.7109H46.0732V64.9059H60.4507V61.7109Z" fill="#FFA844"/>
<path d="M66.3973 8.9043V30.6924C65.7331 30.995 65.0233 31.1849 64.2968 31.2545C62.5861 31.4266 60.8743 30.9392 59.5107 29.8918C58.1472 28.8445 57.235 27.3161 56.9602 25.6189L56.8714 25.1455H56.7531C56.7137 26.9292 55.9849 28.6283 54.7195 29.8861C53.4542 31.1438 51.7508 31.8625 49.967 31.8912C48.1831 31.9199 46.4575 31.2564 45.1523 30.04C43.8472 28.8236 43.064 27.1489 42.9673 25.3674V25.1455H42.9081C42.8707 26.9509 42.1273 28.6697 40.8373 29.9332C39.5473 31.1968 37.8135 31.9045 36.0078 31.9045C34.2021 31.9045 32.4683 31.1968 31.1783 29.9332C29.8883 28.6697 29.1449 26.9509 29.1075 25.1455H29.0483L29.0335 25.3674C28.9368 27.1489 28.1536 28.8236 26.8485 30.04C25.5433 31.2564 23.8177 31.9199 22.0338 31.8912C20.2499 31.8625 18.5466 31.1438 17.2812 29.8861C16.0159 28.6283 15.2871 26.9292 15.2477 25.1455H15.1293L15.0406 25.6189C14.7658 27.3161 13.8535 28.8445 12.49 29.8918C11.1265 30.9392 9.41464 31.4266 7.70393 31.2545C6.97747 31.1849 6.26764 30.995 5.60352 30.6924V8.9043H66.3973Z" fill="#FFD486"/>
<path d="M55.5545 26.0186C54.7398 27.2078 53.5732 28.1121 52.2183 28.6047C50.8635 29.0973 49.3885 29.1534 48.0002 28.7651C46.6119 28.3769 45.38 27.5637 44.4773 26.4398C43.5746 25.3158 43.0464 23.9375 42.9668 22.4981L42.0793 6.0498H54.2381L56.6787 21.019C56.9698 22.7683 56.5664 24.5622 55.5545 26.0186ZM17.7618 6.0498L15.0401 22.7496C14.7802 24.33 13.9692 25.7674 12.7509 26.807C11.5325 27.8467 9.9855 28.4215 8.38388 28.4296C8.15668 28.4345 7.92939 28.4246 7.70347 28.4C6.72563 28.3019 5.78087 27.9921 4.93486 27.492C4.08885 26.992 3.36188 26.3137 2.80447 25.5043C2.24705 24.6949 1.87257 23.7739 1.70705 22.8052C1.54153 21.8365 1.58893 20.8433 1.84597 19.8948L5.60305 6.0498H17.7618Z" fill="#EE6148"/>
<path d="M29.9205 6.0498L29.033 22.4981C28.9296 24.2583 28.159 25.9128 26.8784 27.1247C25.5978 28.3367 23.9033 29.0149 22.1401 29.0213C20.3126 29.0232 18.5589 28.3001 17.2639 27.0107C15.9689 25.7212 15.2383 23.9706 15.2324 22.1431C15.2326 21.7667 15.2622 21.3908 15.3212 21.019L17.7618 6.0498H29.9205ZM42.9372 22.1136C42.9302 23.0365 42.739 23.9488 42.3748 24.797C42.0106 25.6451 41.4808 26.412 40.8164 27.0527C40.1519 27.6933 39.3663 28.1949 38.5054 28.528C37.6446 28.8611 36.726 29.019 35.8034 28.9924C34.8807 28.9658 33.9727 28.7553 33.1325 28.3732C32.2923 27.9911 31.5368 27.4451 30.9103 26.7672C30.2839 26.0893 29.7991 25.2932 29.4844 24.4255C29.1696 23.5578 29.0313 22.636 29.0774 21.7142L29.9205 6.0498H42.0793L42.9224 21.7142C42.9224 21.8473 42.9372 21.9804 42.9372 22.1136ZM69.2368 25.4417C68.6822 26.2683 67.9517 26.9622 67.0976 27.4736C66.2435 27.985 65.287 28.3014 64.2964 28.4C64.0705 28.4246 63.8432 28.4345 63.616 28.4296C62.0124 28.4286 60.4616 27.8563 59.2418 26.8154C58.022 25.7745 57.2129 24.3331 56.9597 22.7496L54.2381 6.0498H66.3968L70.1539 19.8948C70.4079 20.831 70.4575 21.811 70.2992 22.7681C70.141 23.7252 69.7786 24.637 69.2368 25.4417Z" fill="#EE6148"/>
<path d="M55.5549 26.0186C54.533 26.4525 53.4216 26.6338 52.3148 26.5471C51.208 26.4604 50.1384 26.1082 49.1966 25.5205C48.2547 24.9327 47.4684 24.1267 46.9041 23.1706C46.3399 22.2145 46.0143 21.1365 45.9551 20.0279L45.2007 6.0498H54.2384L56.679 21.019C56.9701 22.7683 56.5668 24.5622 55.5549 26.0186ZM17.7621 6.0498L15.0405 22.7496C14.8874 23.7027 14.529 24.6111 13.9903 25.4121C13.1599 25.7745 12.2634 25.9609 11.3573 25.9594C11.1301 25.9643 10.9029 25.9544 10.6769 25.9298C9.70087 25.832 8.75784 25.5227 7.91345 25.0235C7.06906 24.5243 6.34358 23.847 5.78749 23.0389C5.2314 22.2308 4.85806 21.3113 4.69343 20.3443C4.5288 19.3772 4.57685 18.386 4.83422 17.4394L7.92568 6.0498H17.7621ZM29.9209 6.0498L29.0334 22.4981C28.9652 23.7549 28.5505 24.9682 27.8353 26.0038C26.9826 26.3796 26.0602 26.5711 25.1284 26.5658C23.2993 26.5647 21.5452 25.8386 20.2504 24.5466C18.9556 23.2546 18.2258 21.502 18.2207 19.6729C18.2208 19.2965 18.2505 18.9206 18.3094 18.5488L20.3507 6.0498H29.9209ZM42.9376 22.1136C42.9376 23.5011 42.5201 24.8566 41.7394 26.0038C40.869 26.3727 39.9336 26.5638 38.9882 26.5658C38.0445 26.5652 37.1108 26.3724 36.2441 25.9992C35.3773 25.6261 34.5956 25.0803 33.9465 24.3953C33.2975 23.7103 32.7947 22.9003 32.4688 22.0146C32.1429 21.129 32.0007 20.1863 32.0509 19.244L32.7757 6.0498H42.0796L42.9228 21.7142C42.9228 21.8473 42.9376 21.9804 42.9376 22.1136ZM69.2371 25.4417C68.6132 25.6975 67.9556 25.8619 67.2846 25.9298C67.0587 25.9544 66.8314 25.9643 66.6042 25.9594C64.999 25.9586 63.4464 25.3868 62.2242 24.3461C61.002 23.3055 60.1899 21.8639 59.9332 20.2794L57.6257 6.0498H66.3971L70.1542 19.8948C70.4082 20.831 70.4578 21.811 70.2996 22.7681C70.1413 23.7252 69.779 24.637 69.2371 25.4417Z" fill="#FF6E56"/>
<path d="M13.111 35.6834C12.8168 35.6834 12.5346 35.8003 12.3266 36.0083C12.1185 36.2164 12.0016 36.4986 12.0016 36.7928V52.6702C12.0016 52.9644 12.1185 53.2466 12.3266 53.4546C12.5346 53.6627 12.8168 53.7795 13.111 53.7795H38.9831C39.2773 53.7795 39.5595 53.6627 39.7676 53.4546C39.9756 53.2466 40.0925 52.9644 40.0925 52.6702V36.7928C40.0925 36.4986 39.9756 36.2164 39.7676 36.0083C39.5595 35.8003 39.2773 35.6834 38.9831 35.6834H13.111ZM37.8737 51.5608H14.2204V37.9022H37.8737V51.5608ZM7.58929 29.499C9.05028 29.6473 10.5235 29.3808 11.84 28.7302C13.1564 28.0795 14.2629 27.071 15.0325 25.8203C15.6906 27.0946 16.6801 28.1678 17.8968 28.927C19.1135 29.6861 20.5124 30.1032 21.9462 30.1343C23.38 30.1653 24.7957 29.8091 26.0441 29.1033C27.2925 28.3975 28.3275 27.3681 29.0402 26.1236C29.3542 26.6643 29.7289 27.1675 30.1569 27.6234C30.909 28.4173 31.8149 29.0496 32.8195 29.4817C33.824 29.9138 34.9061 30.1367 35.9996 30.1367C37.0932 30.1367 38.1752 29.9138 39.1798 29.4817C40.1843 29.0496 41.0903 28.4173 41.8424 27.6234C42.2704 27.1675 42.645 26.6643 42.9591 26.1236C43.6745 27.3648 44.7105 28.3907 45.9586 29.094C47.2067 29.7972 48.621 30.1518 50.0532 30.1207C51.4855 30.0895 52.883 29.6737 54.0994 28.9169C55.3157 28.16 56.3061 27.09 56.9668 25.8189C57.9623 27.423 59.5021 28.6151 61.3045 29.1771C63.1069 29.739 65.0513 29.6332 66.7821 28.8789C68.5128 28.1247 69.9141 26.7725 70.7296 25.0698C71.5451 23.3671 71.7203 21.4276 71.223 19.6064L67.5059 5.89448V1.10938C67.5059 0.81515 67.389 0.532977 67.181 0.324928C66.9729 0.11688 66.6907 0 66.3965 0L5.56579 0C5.27156 0 4.98939 0.11688 4.78134 0.324928C4.57329 0.532977 4.45641 0.81515 4.45641 1.10938V6.02317L0.776247 19.6108C0.477106 20.7138 0.421862 21.8688 0.614357 22.9953C0.806852 24.1218 1.24247 25.1929 1.89089 26.134C2.53932 27.0751 3.38499 27.8637 4.36909 28.4448C5.35318 29.0259 6.45206 29.3857 7.58929 29.499ZM22.1369 27.9178C21.2978 27.918 20.4687 27.7358 19.707 27.3838C18.9453 27.0318 18.2692 26.5184 17.7256 25.8792C17.1819 25.2401 16.7837 24.4904 16.5585 23.6821C16.3333 22.8737 16.2865 22.0261 16.4214 21.1979L18.7037 7.15325H28.7517L27.9663 21.6491L27.9234 22.4345C27.8439 23.9154 27.1995 25.3094 26.1231 26.3295C25.0466 27.3496 23.6199 27.918 22.1369 27.9178ZM40.2315 26.0984C39.4113 26.9669 38.344 27.5623 37.1741 27.8042C36.0043 28.0461 34.7884 27.9228 33.6909 27.4509C32.5935 26.979 31.6675 26.1813 31.0383 25.1658C30.4092 24.1504 30.1072 22.9661 30.1732 21.7733L30.2191 20.9199L30.9586 7.15325H41.017L41.7566 20.9199L41.8024 21.7733C41.8509 22.5634 41.7365 23.355 41.4663 24.0991C41.196 24.8431 40.7758 25.5236 40.2315 26.0984ZM54.2733 25.8795C53.5224 26.7615 52.5242 27.3981 51.4078 27.7071C50.2914 28.0161 49.108 27.9833 48.0105 27.6129C46.9129 27.2425 45.9516 26.5515 45.2508 25.6292C44.5499 24.7069 44.1417 23.5956 44.0788 22.439L44.036 21.6535L43.2505 7.15769H53.2955L55.5779 21.2024C55.7135 22.0309 55.6671 22.879 55.4418 23.6877C55.2165 24.4964 54.8177 25.2464 54.2733 25.8854V25.8795ZM68.2795 24.8751C67.6396 25.8036 66.7366 26.5195 65.6866 26.9305C64.6365 27.3416 63.4875 27.429 62.3874 27.1817C61.2872 26.9343 60.2862 26.3634 59.5132 25.5425C58.7401 24.7215 58.2304 23.6881 58.0496 22.575L55.5424 7.15325H65.5504L69.0812 20.1906C69.2965 20.9828 69.3363 21.8123 69.1979 22.6215C69.0594 23.4306 68.746 24.1997 68.2795 24.8751ZM6.67516 2.21875H65.2871V4.9345H6.67516V2.21875ZM2.91808 20.1906L6.44885 7.15325H16.4569L14.9112 16.6613L14.2307 20.8415L13.9497 22.5736C13.8264 23.3299 13.5505 24.0533 13.1389 24.6997C12.7272 25.3461 12.1884 25.902 11.5551 26.3336C10.9218 26.7651 10.2074 27.0634 9.45525 27.2102C8.7031 27.357 7.92895 27.3493 7.17988 27.1874C6.43081 27.0256 5.72249 26.7132 5.09799 26.269C4.47349 25.8248 3.94586 25.2583 3.54721 24.6038C3.14856 23.9493 2.8872 23.2205 2.77905 22.4619C2.67089 21.7032 2.7182 20.9304 2.91808 20.1906Z" fill="black"/>
<path d="M70.3906 63.796H67.5062V31.9629C67.5062 31.6687 67.3894 31.3865 67.1813 31.1784C66.9733 30.9704 66.6911 30.8535 66.3969 30.8535C66.1026 30.8535 65.8205 30.9704 65.6124 31.1784C65.4044 31.3865 65.2875 31.6687 65.2875 31.9629V63.796H61.5674V36.7924C61.5674 36.4981 61.4505 36.216 61.2425 36.0079C61.0344 35.7999 60.7522 35.683 60.458 35.683H46.079C45.7848 35.683 45.5026 35.7999 45.2946 36.0079C45.0865 36.216 44.9697 36.4981 44.9697 36.7924V63.796H6.7125V31.9747C6.7125 31.6805 6.59562 31.3983 6.38757 31.1903C6.17952 30.9822 5.89735 30.8654 5.60313 30.8654C5.3089 30.8654 5.02673 30.9822 4.81868 31.1903C4.61063 31.3983 4.49375 31.6805 4.49375 31.9747V63.796H1.60938C1.31515 63.796 1.03298 63.9129 0.824928 64.121C0.61688 64.329 0.5 64.6112 0.5 64.9054L0.5 69.8902C0.5 70.1844 0.61688 70.4666 0.824928 70.6747C1.03298 70.8827 1.31515 70.9996 1.60938 70.9996H70.3906C70.6848 70.9996 70.967 70.8827 71.1751 70.6747C71.3831 70.4666 71.5 70.1844 71.5 69.8902V64.9054C71.5 64.6112 71.3831 64.329 71.1751 64.121C70.967 63.9129 70.6848 63.796 70.3906 63.796ZM47.1884 37.9017H59.3486V63.796H47.1884V37.9017ZM69.2812 68.7808H2.71875V66.0148H69.2812V68.7808Z" fill="black"/>
</g>
<defs>
<clipPath id="clip0_717_1199">
<rect width="71" height="71" fill="white" transform="translate(0.5)"/>
</clipPath>
</defs>
</svg>
